<svg width="37" height="39" viewBox="0 0 37 39" fill="none" xmlns="http://www.w3.org/2000/svg">
<path d="M15.625 0.75L29.3088 5.025C29.6904 5.14414 30.024 5.38215 30.2608 5.70429C30.4975 6.02643 30.6252 6.41582 30.625 6.81563V10.125H34.375C34.8723 10.125 35.3492 10.3225 35.7008 10.6742C36.0525 11.0258 36.25 11.5027 36.25 12V15.75H11.875V12C11.875 11.5027 12.0725 11.0258 12.4242 10.6742C12.7758 10.3225 13.2527 10.125 13.75 10.125H26.875V8.19375L15.625 4.67625L4.375 8.19375V22.0763C4.37473 23.2242 4.63797 24.3568 5.14443 25.387C5.6509 26.4172 6.38707 27.3173 7.29625 28.0181L7.65063 28.2731L15.625 33.7125L22.7162 28.875H13.75C13.2527 28.875 12.7758 28.6775 12.4242 28.3258C12.0725 27.9742 11.875 27.4973 11.875 27V19.5H36.25V27C36.25 27.4973 36.0525 27.9742 35.7008 28.3258C35.3492 28.6775 34.8723 28.875 34.375 28.875L28.3375 28.8769C27.6119 29.8331 26.7306 30.6769 25.7125 31.3706L15.625 38.25L5.5375 31.3725C4.02348 30.3402 2.78453 28.9537 1.92839 27.3336C1.07224 25.7134 0.62481 23.9087 0.625 22.0763V6.81563C0.625226 6.41614 0.753037 6.02717 0.989804 5.70541C1.22657 5.38365 1.55992 5.14592 1.94125 5.02688L15.625 0.75Z" fill="#4062D1"/>
</svg>
