<svg width="200" height="200" viewBox="0 0 200 200" fill="none" xmlns="http://www.w3.org/2000/svg">
<circle cx="100" cy="100" r="100" fill="#D8FFD9"/>
<circle cx="99.9976" cy="100.001" r="93.5484" fill="#A8FBAB"/>
<circle cx="100.097" cy="100.097" r="87.0968" fill="#4CAF50"/>
<path d="M142.75 122.5H108.654C108.55 125.286 106.585 127 104.05 127H95.5C92.8717 127 90.8566 124.543 90.8917 122.5H57.25C56.0125 122.5 55 123.513 55 124.75V127C55 131.95 59.05 136 64 136H136C140.95 136 145 131.95 145 127V124.75C145 123.513 143.988 122.5 142.75 122.5ZM136 70.75C136 67.0375 132.963 64 129.25 64H70.75C67.0375 64 64 67.0375 64 70.75V118H136V70.75ZM127 109H73V73H127V109Z" fill="white"/>
</svg>
