<svg width="89" height="22" viewBox="0 0 89 22" fill="none" xmlns="http://www.w3.org/2000/svg">
<path d="M35.3762 1.38763H31.6125L25.2383 8.73982V1.38763H21.9922V16.9121H25.2383V12.3427L27.4573 9.82746L31.8481 16.9121H35.5643L29.7866 7.73587L35.3762 1.38763Z" fill="#253065"/>
<path d="M41.1385 14.7717C40.6997 14.7717 40.386 14.6621 40.1977 14.4424C40.0096 14.2227 39.9155 13.839 39.9155 13.2897V-0.000162125H36.6929V13.6426C36.6929 14.8656 36.9555 15.7558 37.4812 16.3124C38.0062 16.8692 38.8415 17.1475 39.9861 17.1475C40.3779 17.1475 40.774 17.1041 41.1739 17.0181C41.574 16.9316 41.9069 16.8105 42.1736 16.6534L42.4559 14.5364C42.189 14.615 41.9697 14.6739 41.7972 14.7127C41.6246 14.7522 41.4052 14.7717 41.1385 14.7717Z" fill="#253065"/>
<path d="M51.2762 11.4786C51.2762 12.0276 51.2058 12.5018 51.0646 12.9017C50.9235 13.3014 50.7311 13.627 50.4884 13.8779C50.2452 14.1288 49.9667 14.3128 49.6533 14.4305C49.3394 14.5483 49.0183 14.6071 48.6889 14.6071C47.9832 14.6071 47.4421 14.4305 47.0657 14.0778C46.6895 13.7248 46.5014 13.0939 46.5014 12.1843V5.15111H43.2788V12.9604C43.2788 13.9484 43.4631 14.7522 43.8316 15.3714C44.1999 15.9913 44.6978 16.4418 45.3251 16.7238C45.9522 17.0063 46.6579 17.1475 47.4421 17.1475C48.3985 17.1475 49.2179 16.9628 49.9003 16.5947C50.5825 16.2264 51.1195 15.6501 51.5115 14.8656L51.629 16.9122H54.4988V5.15111H51.2762V11.4786Z" fill="#253065"/>
<path d="M73.2755 5.38635C72.6407 5.07291 71.9385 4.91597 71.1704 4.91597C70.6373 4.91597 70.112 5.00224 69.5945 5.17454C69.0769 5.34749 68.6063 5.60605 68.1832 5.95088C67.7597 6.29592 67.4222 6.727 67.1717 7.24457C66.8265 6.47655 66.3132 5.896 65.6308 5.50399C64.9488 5.11219 64.1842 4.91597 63.3374 4.91597C62.5064 4.91597 61.7499 5.11219 61.0675 5.50399C60.3856 5.896 59.8482 6.48424 59.4564 7.26805L59.3389 5.15105H56.4458V16.9121H59.6684V10.6787C59.6684 9.91074 59.7976 9.2909 60.0563 8.82052C60.3151 8.35015 60.6444 8.00533 61.0443 7.78562C61.444 7.56613 61.8477 7.45616 62.2555 7.45616C62.8515 7.45616 63.3413 7.63679 63.7258 7.99721C64.1097 8.35826 64.3019 8.96977 64.3019 9.83194V16.9121H67.5245V10.5848C67.5245 9.89493 67.6383 9.31865 67.8654 8.85575C68.0926 8.39349 68.4065 8.04439 68.8066 7.8091C69.2065 7.5738 69.6415 7.45616 70.112 7.45616C70.7075 7.45616 71.1939 7.63679 71.5704 7.99721C71.9466 8.35826 72.1347 8.96977 72.1347 9.83194V16.9121H75.334L75.3573 9.19695C75.3726 8.22481 75.1886 7.42499 74.8045 6.79768C74.4201 6.17059 73.9107 5.70021 73.2755 5.38635Z" fill="#253065"/>
<path d="M85.0362 13.7482C84.5426 14.3679 83.8638 14.6772 83.0017 14.6772C82.4527 14.6772 81.9704 14.5325 81.5549 14.2421C81.1392 13.9521 80.8219 13.5328 80.6026 12.9838C80.3825 12.4349 80.2734 11.7841 80.2734 11.0315C80.2734 10.2632 80.3908 9.60839 80.6259 9.06734C80.861 8.52629 81.1866 8.111 81.6021 7.82062C82.0176 7.53067 82.4995 7.38548 83.0486 7.38548C83.911 7.38548 84.5812 7.69529 85.0599 8.31448C85.538 8.93432 85.7774 9.83983 85.7774 11.0315C85.7774 12.2233 85.5303 13.1288 85.0362 13.7482ZM88.3528 7.72668C87.9215 6.825 87.3296 6.13108 86.577 5.64491C85.8243 5.15895 84.9694 4.91574 84.0131 4.91574C83.2758 4.91574 82.6094 5.06841 82.0137 5.37437C81.4176 5.68013 80.9278 6.09969 80.5437 6.63284C80.3583 6.8897 80.2029 7.16577 80.0744 7.45893L79.9439 5.15083H77.0508V21.8516H80.2734V14.8636C80.5383 15.4036 80.8979 15.878 81.367 16.2769C82.049 16.857 82.9075 17.1472 83.9424 17.1472C84.9148 17.1472 85.7808 16.9042 86.5415 16.418C87.3021 15.9321 87.9021 15.23 88.3413 14.3125C88.78 13.3953 88.9999 12.2938 88.9999 11.008C88.9999 9.72218 88.7841 8.62835 88.3528 7.72668Z" fill="#253065"/>
<path d="M12.9574 11.9468L8.62158 10.927C8.63973 10.8414 8.66087 10.7573 8.68479 10.6719C9.01445 9.49349 9.74104 8.53267 10.6837 7.89575L12.9574 11.9468Z" fill="#5278C4"/>
<path d="M18.346 13.4293C17.6126 16.0649 14.8604 17.6121 12.1853 16.8925C9.80628 16.2515 8.30826 14.0073 8.51451 11.6212L13.5755 12.812C13.6021 12.8176 13.6288 12.8206 13.6555 12.8206C13.7636 12.8206 13.8686 12.77 13.9359 12.6818C14.0187 12.5693 14.0285 12.4192 13.9611 12.2987L11.2917 7.54331C12.3522 7.02298 13.6036 6.87288 14.8405 7.2081C17.534 7.93747 19.1008 10.7164 18.346 13.4293Z" fill="#5278C4"/>
<path d="M7.5673 11.4001C6.90114 13.3371 4.84456 14.4495 2.85823 13.8926C0.822999 13.3232 -0.39895 11.2149 0.118825 9.1654C0.644713 7.07679 2.78414 5.82538 4.88385 6.37966C5.3286 6.49731 5.73385 6.68115 6.0917 6.91815L3.48959 9.91164C3.40824 10.0043 3.38283 10.1333 3.41934 10.2498C3.45735 10.366 3.55407 10.4559 3.67342 10.4839L7.5673 11.4001Z" fill="#74D2E7"/>
<path d="M7.73843 10.7192L4.3999 9.93372L6.63733 7.35979C7.51103 8.20553 7.94319 9.43857 7.73843 10.7192Z" fill="#74D2E7"/>
<path d="M10.2019 7.03742C9.58316 7.31798 8.87643 7.40489 8.19467 7.2281C7.82017 7.13137 7.47769 6.96013 7.1792 6.73573L8.91294 4.74107L10.2019 7.03742Z" fill="#68C985"/>
<path d="M11.9314 5.01896C11.7632 5.69794 11.3494 6.27444 10.8064 6.67969L9.28022 3.96271C9.22428 3.86449 9.12457 3.79723 9.01119 3.78591C8.89611 3.77481 8.78508 3.81965 8.71078 3.90527L6.67128 6.25201C6.04162 5.50428 5.76512 4.4634 6.03436 3.47311C6.47207 1.85723 8.19321 0.885092 9.79928 1.34522C11.3577 1.79275 12.3215 3.45496 11.9314 5.01896Z" fill="#68C985"/>
</svg>
