<svg width="18" height="18" viewBox="0 0 18 18" fill="none" xmlns="http://www.w3.org/2000/svg">
<path d="M3.1167 2.18971C4.7498 0.774602 6.83909 -0.00300588 9 8.73238e-06C13.9707 8.73238e-06 18 4.0293 18 9C18 10.9224 17.397 12.7044 16.371 14.166L13.5 9H16.2C16.2001 7.58846 15.7853 6.20803 15.0072 5.03033C14.2291 3.85264 13.1219 2.92965 11.8235 2.37612C10.525 1.82259 9.09244 1.66294 7.70396 1.91702C6.31548 2.17111 5.03231 2.82772 4.014 3.80521L3.1167 2.18971ZM14.8833 15.8103C13.2502 17.2254 11.1609 18.003 9 18C4.0293 18 0 13.9707 0 9C0 7.0776 0.603 5.2956 1.629 3.83401L4.5 9H1.8C1.79988 10.4115 2.21468 11.792 2.9928 12.9697C3.77093 14.1474 4.87806 15.0704 6.17654 15.6239C7.47502 16.1774 8.90756 16.3371 10.296 16.083C11.6845 15.8289 12.9677 15.1723 13.986 14.1948L14.8833 15.8103Z" fill="white"/>
</svg>
