<svg width="26" height="30" viewBox="0 0 26 30" fill="none" xmlns="http://www.w3.org/2000/svg">
<path d="M8.26357 25.2633C7.89291 25.2612 7.52954 25.1601 7.21094 24.9707V25.2633C7.21094 25.8447 7.68222 26.316 8.26357 26.316H20.8951C21.4765 26.316 21.9478 25.8447 21.9478 25.2633V24.9707C21.6292 25.1601 21.2658 25.2612 20.8951 25.2633H8.26357Z" fill="#4C98FF"/>
<path d="M9.31592 23.6841V24.2105H10.8949V20.9536C9.91913 21.5169 9.31745 22.5575 9.31592 23.6841Z" fill="#4C98FF"/>
<path d="M12.147 6.7196C10.4286 7.47611 9.31848 9.17527 9.31592 11.0528V12.2943C9.42074 12.242 9.53037 12.1999 9.64329 12.1686C9.84091 11.137 10.6719 10.3447 11.7117 10.1965C13.7591 9.91487 15.0801 9.28645 15.427 8.42645C15.5074 8.22765 15.7004 8.09753 15.9149 8.09753C16.1293 8.09753 16.3223 8.22765 16.4028 8.42645C16.6725 9.1297 17.2041 9.70121 17.8859 10.0212C18.7485 10.4286 19.3584 11.2307 19.5207 12.1707C19.6315 12.2017 19.7392 12.2431 19.8422 12.2943V11.0528C19.8428 9.17596 18.7339 7.47627 17.0159 6.72066C17.0059 6.71645 16.997 6.71171 16.9875 6.70697C16.3936 6.44876 15.753 6.31565 15.1054 6.31592H14.0528C13.4029 6.31572 12.7601 6.45031 12.1649 6.71118L12.147 6.7196Z" fill="#4C98FF"/>
<path d="M15.1055 5.26337C15.5729 5.26517 16.0383 5.32331 16.4918 5.43653C16.1484 4.6893 15.4013 4.21045 14.5789 4.21045C13.7565 4.21045 13.0094 4.6893 12.666 5.43653C13.1196 5.32279 13.5853 5.26465 14.0529 5.26337H15.1055Z" fill="#4C98FF"/>
<path d="M24.579 11.579C24.579 10.9976 24.1077 10.5264 23.5263 10.5264H23V12.6316H23.5263C24.1077 12.6316 24.579 12.1604 24.579 11.579Z" fill="#4C98FF"/>
<path d="M12.5002 1.05263H16.6581C16.9489 1.05249 17.2266 0.932098 17.4255 0.72L18.1008 0H11.0576L11.7324 0.72C11.9316 0.931916 12.2094 1.05226 12.5002 1.05263Z" fill="#4C98FF"/>
<path d="M6.15813 25.263V8.97774C6.15498 8.38991 5.68353 7.91188 5.09579 7.90059C4.50804 7.88931 4.01858 8.34888 3.99287 8.93617L3.64024 19.1577C3.56386 21.1852 3.10865 23.1804 2.29813 25.0404L0.368652 29.4767L9.93287 29.4735C10.0723 29.473 10.206 29.4176 10.305 29.3193L10.8602 28.7641C11.048 28.5778 11.2792 28.4413 11.5329 28.3667C12.4174 28.119 13.2752 27.7846 14.0939 27.3683H8.2634C7.10069 27.3683 6.15813 26.4257 6.15813 25.263Z" fill="#4C98FF"/>
<path d="M20.8951 0H19.5441L18.1941 1.44C17.7957 1.86388 17.24 2.10458 16.6583 2.10526H12.5004C11.9188 2.10421 11.3632 1.86357 10.9646 1.44L9.61462 0H8.26357C7.68222 0 7.21094 0.471279 7.21094 1.05263V23.1579C7.21094 23.7392 7.68222 24.2105 8.26357 24.2105V23.6842C8.26618 21.3599 10.1498 19.4763 12.4741 19.4737V18.2042C11.4443 17.669 10.5948 16.8426 10.0315 15.8279C9.04183 15.7764 8.26531 14.9599 8.26357 13.9689V11.0526C8.26642 8.86642 9.50054 6.86825 11.4541 5.88684C11.667 4.32475 13.0005 3.15973 14.577 3.15853C16.1536 3.15734 17.4889 4.32034 17.7041 5.8821C19.6608 6.86253 20.8961 8.864 20.8951 11.0526V13.9684C20.8934 14.9594 20.1169 15.7759 19.1273 15.8274C18.564 16.8422 17.7145 17.6689 16.6846 18.2042V19.4737C19.0089 19.4763 20.8925 21.3599 20.8951 23.6842V24.2105C21.4765 24.2105 21.9478 23.7392 21.9478 23.1579V1.05263C21.9478 0.471279 21.4765 0 20.8951 0Z" fill="#4C98FF"/>
<path d="M23.5263 20H23V22.1053H23.5263C24.1077 22.1053 24.579 21.634 24.579 21.0526C24.579 20.4713 24.1077 20 23.5263 20Z" fill="#4C98FF"/>
<path d="M24.0526 16.8423H23V18.9476H24.0526C24.634 18.9476 25.1052 18.4763 25.1052 17.8949C25.1052 17.3136 24.634 16.8423 24.0526 16.8423Z" fill="#4C98FF"/>
<path d="M24.5789 13.6841H23V15.7894H24.5789C25.1603 15.7894 25.6316 15.3181 25.6316 14.7367C25.6316 14.1554 25.1603 13.6841 24.5789 13.6841Z" fill="#4C98FF"/>
<path d="M18.2632 20.9536V24.2105H19.8421V23.6841C19.8406 22.5575 19.2389 21.5169 18.2632 20.9536Z" fill="#4C98FF"/>
<path d="M13.5264 18.7007V19.997C13.5264 20.5784 13.9976 21.0496 14.579 21.0496C15.1603 21.0496 15.6316 20.5784 15.6316 19.997V18.7007C15.2965 18.8397 14.941 18.9231 14.579 18.9475C14.217 18.9231 13.8615 18.8397 13.5264 18.7007Z" fill="#4C98FF"/>
<path d="M10.1253 14.7771C10.189 14.7771 10.7153 14.6292 10.8748 15.1113C11.4032 16.7087 13.9269 17.8945 14.579 17.8945C15.2311 17.8945 17.7548 16.7087 18.2832 15.1113C18.368 14.8559 18.6318 14.7056 18.8948 14.7629C18.9396 14.7726 18.9853 14.7774 19.0311 14.7771C19.4703 14.7659 19.8205 14.4067 19.8205 13.9674C19.8205 13.5281 19.4703 13.1689 19.0311 13.1577C18.7404 13.1577 18.5048 12.922 18.5048 12.6313C18.5022 11.9164 18.084 11.2683 17.4337 10.9713C16.8012 10.6743 16.2591 10.2141 15.8632 9.63818C14.9253 10.6156 13.239 11.0487 11.8527 11.2387C11.162 11.3402 10.6505 11.9332 10.6516 12.6313C10.6516 12.922 10.416 13.1577 10.1253 13.1577C9.68613 13.1689 9.33594 13.5281 9.33594 13.9674C9.33594 14.4067 9.68613 14.7659 10.1253 14.7771Z" fill="#4C98FF"/>
<path d="M11.9478 20.5737V24.2106H17.2109V20.5737C17.0371 20.5433 16.8611 20.5274 16.6846 20.5264H16.6109C16.4132 21.4801 15.5523 22.1491 14.5793 22.1053C13.6063 22.1491 12.7455 21.4801 12.5478 20.5264H12.4741C12.2976 20.5274 12.1216 20.5433 11.9478 20.5737Z" fill="#4C98FF"/>
</svg>
